<svg width="232px" height="25px" viewBox="0 0 232 25" version="1.1" xmlns="http://www.w3.org/2000/svg" xmlns:xlink="http://www.w3.org/1999/xlink">
    <!-- Generator: Sketch 55.2 (78181) - https://sketchapp.com -->
    <title>Consumersearch.com</title>
    <desc>consumersearch.com</desc>
    <g id="Novelty" stroke="none" stroke-width="1" fill="none" fill-rule="evenodd">
        <g id="CS-Novelty-Photo-Listicle" transform="translate(-441.000000, -12.000000)">
            <g id="HEADER">
                <g id="CS-Logo" transform="translate(441.000000, 12.000000)">
                    <g stroke-width="1">
                        <path d="M47.94,19.036 C47.6279984,19.5040023 47.2510022,19.9459979 46.809,20.362 C46.3669978,20.7780021 45.8556696,21.1419984 45.275,21.454 C44.6943304,21.7660016 44.0530035,22.0129991 43.351,22.195 C42.6489965,22.3770009 41.8820042,22.468 41.05,22.468 C39.6633264,22.468 38.3806726,22.2253358 37.202,21.74 C36.0233274,21.2546642 35.0093376,20.5830043 34.16,19.725 C33.3106624,18.8669957 32.647669,17.8486726 32.171,16.67 C31.694331,15.4913274 31.456,14.200007 31.456,12.796 C31.456,11.391993 31.6986642,10.1006726 32.184,8.922 C32.6693358,7.74332744 33.3409957,6.72500429 34.199,5.867 C35.0570043,5.00899571 36.0709942,4.33733576 37.241,3.852 C38.4110059,3.36666424 39.6806598,3.124 41.05,3.124 C41.7260034,3.124 42.3889968,3.19333264 43.039,3.332 C43.6890032,3.47066736 44.2999971,3.66566541 44.872,3.917 C45.4440029,4.16833459 45.9639977,4.47166489 46.432,4.827 C46.9000023,5.18233511 47.2899984,5.58533108 47.602,6.036 L46.042,7.18 C45.8513324,6.88533186 45.5956683,6.59066814 45.275,6.296 C44.9543317,6.00133186 44.5773355,5.74133446 44.144,5.516 C43.7106645,5.29066554 43.2383359,5.10866736 42.727,4.97 C42.2156641,4.83133264 41.6653363,4.762 41.076,4.762 C39.879994,4.762 38.8096714,4.9786645 37.865,5.412 C36.9203286,5.8453355 36.11867,6.43032965 35.46,7.167 C34.80133,7.90367035 34.2986684,8.75732848 33.952,9.728 C33.6053316,10.6986715 33.432,11.721328 33.432,12.796 C33.432,13.870672 33.6096649,14.8933285 33.965,15.864 C34.3203351,16.8346715 34.82733,17.6883297 35.486,18.425 C36.14467,19.1616704 36.9463286,19.7466645 37.891,20.18 C38.8356714,20.6133355 39.8973274,20.83 41.076,20.83 C42.1333386,20.83 43.1386619,20.6133355 44.092,20.18 C45.0453381,19.7466645 45.8426635,19.0533381 46.484,18.1 L47.94,19.036 Z M62.838,15.916 C62.838,16.8346713 62.6776683,17.6839961 62.357,18.464 C62.0363317,19.2440039 61.5900029,19.9199971 61.018,20.492 C60.4459971,21.0640029 59.7613373,21.5103317 58.964,21.831 C58.1666627,22.1516683 57.2913381,22.312 56.338,22.312 C55.4019953,22.312 54.5353373,22.1516683 53.738,21.831 C52.9406627,21.5103317 52.2560029,21.0640029 51.684,20.492 C51.1119971,19.9199971 50.6656683,19.2440039 50.345,18.464 C50.0243317,17.6839961 49.864,16.8346713 49.864,15.916 C49.864,14.9973287 50.0243317,14.1480039 50.345,13.368 C50.6656683,12.5879961 51.1119971,11.9120029 51.684,11.34 C52.2560029,10.7679971 52.9406627,10.3216683 53.738,10.001 C54.5353373,9.68033173 55.4019953,9.52 56.338,9.52 C57.2913381,9.52 58.1666627,9.68033173 58.964,10.001 C59.7613373,10.3216683 60.4459971,10.7679971 61.018,11.34 C61.5900029,11.9120029 62.0363317,12.5879961 62.357,13.368 C62.6776683,14.1480039 62.838,14.9973287 62.838,15.916 Z M60.966,15.916 C60.966,15.2399966 60.8576678,14.603003 60.641,14.005 C60.4243322,13.406997 60.1166687,12.8870022 59.718,12.445 C59.3193313,12.0029978 58.8340029,11.6520013 58.262,11.392 C57.6899971,11.1319987 57.0486702,11.002 56.338,11.002 C55.6273298,11.002 54.9903362,11.1319987 54.427,11.392 C53.8636638,11.6520013 53.3826687,12.0029978 52.984,12.445 C52.5853313,12.8870022 52.2776677,13.406997 52.061,14.005 C51.8443322,14.603003 51.736,15.2399966 51.736,15.916 C51.736,16.5920034 51.8443322,17.228997 52.061,17.827 C52.2776677,18.425003 52.5853313,18.9449978 52.984,19.387 C53.3826687,19.8290022 53.8636638,20.1756654 54.427,20.427 C54.9903362,20.6783346 55.6273298,20.804 56.338,20.804 C57.0486702,20.804 57.6899971,20.6783346 58.262,20.427 C58.8340029,20.1756654 59.3193313,19.8290022 59.718,19.387 C60.1166687,18.9449978 60.4243322,18.425003 60.641,17.827 C60.8576678,17.228997 60.966,16.5920034 60.966,15.916 Z M68.22,9.832 C68.2546668,10.161335 68.2806666,10.5253313 68.298,10.924 C68.3153334,11.3226687 68.324,11.6519987 68.324,11.912 L68.376,11.912 C68.7226684,11.2013298 69.2859961,10.6250022 70.066,10.183 C70.8460039,9.74099779 71.669329,9.52 72.536,9.52 C74.0786744,9.52 75.2356628,9.97932874 76.007,10.898 C76.7783372,11.8166713 77.164,13.0299925 77.164,14.538 L77.164,22 L75.396,22 L75.396,15.266 C75.396,14.6246635 75.3440005,14.0440026 75.24,13.524 C75.1359995,13.0039974 74.9583346,12.5576685 74.707,12.185 C74.4556654,11.8123315 74.1176688,11.522001 73.693,11.314 C73.2683312,11.105999 72.7353365,11.002 72.094,11.002 C71.6259977,11.002 71.1710022,11.0973324 70.729,11.288 C70.2869978,11.4786676 69.8926684,11.7689981 69.546,12.159 C69.1993316,12.549002 68.922001,13.042997 68.714,13.641 C68.505999,14.239003 68.402,14.9453293 68.402,15.76 L68.402,22 L66.634,22 L66.634,12.51 C66.634,12.180665 66.6253334,11.7560026 66.608,11.236 C66.5906666,10.7159974 66.5646668,10.2480021 66.53,9.832 L68.22,9.832 Z M88.214,12.718 C87.9539987,12.2153308 87.5596693,11.8036683 87.031,11.483 C86.5023307,11.1623317 85.9000034,11.002 85.224,11.002 C84.9119984,11.002 84.6000016,11.0366663 84.288,11.106 C83.9759984,11.1753337 83.6986679,11.2879992 83.456,11.444 C83.2133321,11.6000008 83.0183341,11.7993321 82.871,12.042 C82.7236659,12.2846679 82.65,12.570665 82.65,12.9 C82.65,13.4720029 82.8839977,13.9096651 83.352,14.213 C83.8200023,14.5163349 84.5566616,14.771999 85.562,14.98 C87.0006739,15.2746681 88.0623299,15.7036638 88.747,16.267 C89.4316701,16.8303362 89.774,17.5886619 89.774,18.542 C89.774,19.2353368 89.639668,19.8203309 89.371,20.297 C89.102332,20.7736691 88.7513355,21.1636652 88.318,21.467 C87.8846645,21.7703349 87.3950027,21.9869994 86.849,22.117 C86.3029973,22.2470007 85.7526694,22.312 85.198,22.312 C84.2793287,22.312 83.386671,22.1213352 82.52,21.74 C81.653329,21.3586648 80.9426694,20.7606707 80.388,19.946 L81.792,18.906 C82.1040016,19.443336 82.5633303,19.8939982 83.17,20.258 C83.7766697,20.6220018 84.4439964,20.804 85.172,20.804 C85.5533352,20.804 85.9173316,20.7693337 86.264,20.7 C86.6106684,20.6306663 86.9139987,20.5093342 87.174,20.336 C87.4340013,20.1626658 87.6419992,19.941668 87.798,19.673 C87.9540008,19.404332 88.032,19.0706687 88.032,18.672 C88.032,18.0306635 87.7243364,17.5496683 87.109,17.229 C86.4936636,16.9083317 85.6053391,16.6093347 84.444,16.332 C84.0799982,16.2453329 83.6943354,16.1370007 83.287,16.007 C82.8796646,15.8769994 82.5026684,15.6863346 82.156,15.435 C81.8093316,15.1836654 81.5233345,14.8673352 81.298,14.486 C81.0726655,14.1046648 80.96,13.6280029 80.96,13.056 C80.96,12.4319969 81.0813321,11.8990022 81.324,11.457 C81.5666679,11.0149978 81.8916646,10.6510014 82.299,10.365 C82.7063354,10.0789986 83.1699974,9.86666736 83.69,9.728 C84.2100026,9.58933264 84.7473306,9.52 85.302,9.52 C86.1513376,9.52 86.9746627,9.71066476 87.772,10.092 C88.5693373,10.4733352 89.1673313,11.0106632 89.566,11.704 L88.214,12.718 Z M102.124,22 C102.089333,21.670665 102.063333,21.3066687 102.046,20.908 C102.028667,20.5093313 102.02,20.1800013 102.02,19.92 L101.968,19.92 C101.621332,20.6306702 101.058004,21.2069978 100.278,21.649 C99.4979961,22.0910022 98.674671,22.312 97.808,22.312 C96.2653256,22.312 95.1083372,21.8526713 94.337,20.934 C93.5656628,20.0153287 93.18,18.8020075 93.18,17.294 L93.18,9.832 L94.948,9.832 L94.948,16.566 C94.948,17.2073365 94.9999995,17.7879974 95.104,18.308 C95.2080005,18.8280026 95.3856654,19.2743315 95.637,19.647 C95.8883346,20.0196685 96.2263312,20.309999 96.651,20.518 C97.0756688,20.726001 97.6086635,20.83 98.25,20.83 C98.7180023,20.83 99.1729978,20.7346676 99.615,20.544 C100.057002,20.3533324 100.451332,20.063002 100.798,19.673 C101.144668,19.282998 101.421999,18.789003 101.63,18.191 C101.838001,17.592997 101.942,16.8866707 101.942,16.072 L101.942,9.832 L103.71,9.832 L103.71,19.322 C103.71,19.651335 103.718667,20.0759974 103.736,20.596 C103.753333,21.1160026 103.779333,21.5839979 103.814,22 L102.124,22 Z M110.132,11.912 C110.478668,11.2013298 111.011663,10.6250022 111.731,10.183 C112.450337,9.74099779 113.251996,9.52 114.136,9.52 C114.465335,9.52 114.807665,9.55466632 115.163,9.624 C115.518335,9.69333368 115.864998,9.82766567 116.203,10.027 C116.541002,10.2263343 116.852999,10.490665 117.139,10.82 C117.425001,11.149335 117.671999,11.5739974 117.88,12.094 C118.296002,11.2619958 118.863663,10.6250022 119.583,10.183 C120.302337,9.74099779 121.155995,9.52 122.144,9.52 C123.686674,9.52 124.843663,9.97932874 125.615,10.898 C126.386337,11.8166713 126.772,13.0299925 126.772,14.538 L126.772,22 L125.004,22 L125.004,15.266 C125.004,13.9833269 124.765669,12.9520039 124.289,12.172 C123.812331,11.3919961 123.002006,11.002 121.858,11.002 C121.216663,11.002 120.675002,11.1319987 120.233,11.392 C119.790998,11.6520013 119.435668,11.9943312 119.167,12.419 C118.898332,12.8436688 118.703334,13.324664 118.582,13.862 C118.460666,14.399336 118.4,14.9539971 118.4,15.526 L118.4,22 L116.632,22 L116.632,14.902 C116.632,14.3126637 116.588667,13.7753358 116.502,13.29 C116.415333,12.8046642 116.263668,12.3930017 116.047,12.055 C115.830332,11.7169983 115.531335,11.4570009 115.15,11.275 C114.768665,11.0929991 114.283336,11.002 113.694,11.002 C113.277998,11.002 112.857669,11.0973324 112.433,11.288 C112.008331,11.4786676 111.627002,11.7689981 111.289,12.159 C110.950998,12.549002 110.678001,13.042997 110.47,13.641 C110.261999,14.239003 110.158,14.9453293 110.158,15.76 L110.158,22 L108.39,22 L108.39,12.51 C108.39,12.180665 108.381333,11.7560026 108.364,11.236 C108.346667,10.7159974 108.320667,10.2480021 108.286,9.832 L109.976,9.832 C110.010667,10.161335 110.036667,10.5253313 110.054,10.924 C110.071333,11.3226687 110.08,11.6519987 110.08,11.912 L110.132,11.912 Z M140.63,14.98 C140.578,13.8359943 140.20967,12.8870038 139.525,12.133 C138.84033,11.3789962 137.86534,11.002 136.6,11.002 C136.010664,11.002 135.464669,11.1103322 134.962,11.327 C134.459331,11.5436678 134.017335,11.8383315 133.636,12.211 C133.254665,12.5836685 132.951334,13.008331 132.726,13.485 C132.500666,13.961669 132.370667,14.4599974 132.336,14.98 L140.63,14.98 Z M142.424,15.552 L142.424,15.942 C142.424,16.0806674 142.415333,16.2279992 142.398,16.384 L132.31,16.384 C132.327333,16.9906697 132.448666,17.562664 132.674,18.1 C132.899334,18.637336 133.211331,19.1053313 133.61,19.504 C134.008669,19.9026687 134.476664,20.2189988 135.014,20.453 C135.551336,20.6870012 136.131997,20.804 136.756,20.804 C137.674671,20.804 138.467663,20.5916688 139.135,20.167 C139.802337,19.7423312 140.309332,19.2526694 140.656,18.698 L141.982,19.738 C141.253996,20.6566713 140.452338,21.3153313 139.577,21.714 C138.701662,22.1126687 137.761338,22.312 136.756,22.312 C135.854662,22.312 135.018337,22.1516683 134.247,21.831 C133.475663,21.5103317 132.812669,21.0640029 132.258,20.492 C131.703331,19.9199971 131.265668,19.2440039 130.945,18.464 C130.624332,17.6839961 130.464,16.8346713 130.464,15.916 C130.464,14.9973287 130.619998,14.1480039 130.932,13.368 C131.244002,12.5879961 131.677331,11.9120029 132.232,11.34 C132.786669,10.7679971 133.436663,10.3216683 134.182,10.001 C134.927337,9.68033173 135.733329,9.52 136.6,9.52 C137.553338,9.52 138.393996,9.68033173 139.122,10.001 C139.850004,10.3216683 140.456664,10.7549973 140.942,11.301 C141.427336,11.8470027 141.795665,12.4839964 142.047,13.212 C142.298335,13.9400036 142.424,14.7199958 142.424,15.552 Z M146.22,12.51 C146.22,12.180665 146.211333,11.7560026 146.194,11.236 C146.176667,10.7159974 146.150667,10.2480021 146.116,9.832 L147.806,9.832 C147.840667,10.161335 147.866667,10.5253313 147.884,10.924 C147.901333,11.3226687 147.91,11.6519987 147.91,11.912 L147.962,11.912 C148.308668,11.2013298 148.828663,10.6250022 149.522,10.183 C150.215337,9.74099779 150.995329,9.52 151.862,9.52 C152.087334,9.52 152.290999,9.52866658 152.473,9.546 C152.655001,9.56333342 152.841332,9.59799974 153.032,9.65 L152.798,11.314 C152.693999,11.2793332 152.520668,11.2446668 152.278,11.21 C152.035332,11.1753332 151.792668,11.158 151.55,11.158 C151.081998,11.158 150.631335,11.2446658 150.198,11.418 C149.764664,11.5913342 149.387668,11.8643315 149.067,12.237 C148.746332,12.6096685 148.486334,13.0863304 148.287,13.667 C148.087666,14.2476696 147.988,14.9453293 147.988,15.76 L147.988,22 L146.22,22 L146.22,12.51 Z" id="Consumer" fill="#303340"></path>
                        <g id="Dots" fill="#781743">
                            <ellipse id="Oval-1" cx="5.64705882" cy="11.9117647" rx="5.64705882" ry="5.55882353"></ellipse>
                            <ellipse id="Oval-1-Copy-2" cx="14.9621849" cy="20.4485294" rx="4.63865546" ry="4.56617647"></ellipse>
                            <ellipse id="Oval-1-Copy" cx="19.3739496" cy="7.34558824" rx="7.46218487" ry="7.34558824"></ellipse>
                        </g>
                    </g>
                    <path d="M164.362,6.556 C163.963331,6.00133056 163.452003,5.55500169 162.828,5.217 C162.203997,4.87899831 161.450004,4.71 160.566,4.71 C160.115331,4.71 159.656002,4.77933264 159.188,4.918 C158.719998,5.05666736 158.295335,5.26899857 157.914,5.555 C157.532665,5.84100143 157.225001,6.2006645 156.991,6.634 C156.756999,7.0673355 156.64,7.57866372 156.64,8.168 C156.64,8.75733628 156.752666,9.24266476 156.978,9.624 C157.203334,10.0053352 157.502331,10.330332 157.875,10.599 C158.247669,10.867668 158.672331,11.0886658 159.149,11.262 C159.625669,11.4353342 160.123997,11.6086658 160.644,11.782 C161.285337,11.990001 161.930997,12.2153321 162.581,12.458 C163.231003,12.7006679 163.815997,13.016998 164.336,13.407 C164.856003,13.7970019 165.280665,14.290997 165.61,14.889 C165.939335,15.487003 166.104,16.2453287 166.104,17.164 C166.104,18.0826713 165.926335,18.8756633 165.571,19.543 C165.215665,20.2103367 164.756336,20.7606645 164.193,21.194 C163.629664,21.6273355 162.988337,21.947999 162.269,22.156 C161.549663,22.364001 160.826004,22.468 160.098,22.468 C159.543331,22.468 158.988669,22.4116672 158.434,22.299 C157.879331,22.1863328 157.350669,22.0173345 156.848,21.792 C156.345331,21.5666655 155.877335,21.2806684 155.444,20.934 C155.010664,20.5873316 154.629335,20.1886689 154.3,19.738 L155.912,18.542 C156.310669,19.20067 156.869663,19.7509978 157.589,20.193 C158.308337,20.6350022 159.153328,20.856 160.124,20.856 C160.592002,20.856 161.068664,20.7823341 161.554,20.635 C162.039336,20.4876659 162.476998,20.2623348 162.867,19.959 C163.257002,19.6556652 163.577665,19.2830022 163.829,18.841 C164.080335,18.3989978 164.206,17.8833363 164.206,17.294 C164.206,16.6526635 164.080335,16.1196688 163.829,15.695 C163.577665,15.2703312 163.244002,14.9150014 162.828,14.629 C162.411998,14.3429986 161.935336,14.1046676 161.398,13.914 C160.860664,13.7233324 160.297336,13.5326676 159.708,13.342 C159.10133,13.1513324 158.503336,12.9346679 157.914,12.692 C157.324664,12.4493321 156.796002,12.133002 156.328,11.743 C155.859998,11.3529981 155.483001,10.8720029 155.197,10.3 C154.910999,9.72799714 154.768,9.02600416 154.768,8.194 C154.768,7.30999558 154.945665,6.54733654 155.301,5.906 C155.656335,5.26466346 156.119997,4.73600208 156.692,4.32 C157.264003,3.90399792 157.896663,3.60066762 158.59,3.41 C159.283337,3.21933238 159.967997,3.124 160.644,3.124 C161.892006,3.124 162.957996,3.34499779 163.842,3.787 C164.726004,4.22900221 165.393331,4.7533303 165.844,5.36 L164.362,6.556 Z M179.286,14.98 C179.234,13.8359943 178.86567,12.8870038 178.181,12.133 C177.49633,11.3789962 176.52134,11.002 175.256,11.002 C174.666664,11.002 174.120669,11.1103322 173.618,11.327 C173.115331,11.5436678 172.673335,11.8383315 172.292,12.211 C171.910665,12.5836685 171.607334,13.008331 171.382,13.485 C171.156666,13.961669 171.026667,14.4599974 170.992,14.98 L179.286,14.98 Z M181.08,15.552 L181.08,15.942 C181.08,16.0806674 181.071333,16.2279992 181.054,16.384 L170.966,16.384 C170.983333,16.9906697 171.104666,17.562664 171.33,18.1 C171.555334,18.637336 171.867331,19.1053313 172.266,19.504 C172.664669,19.9026687 173.132664,20.2189988 173.67,20.453 C174.207336,20.6870012 174.787997,20.804 175.412,20.804 C176.330671,20.804 177.123663,20.5916688 177.791,20.167 C178.458337,19.7423312 178.965332,19.2526694 179.312,18.698 L180.638,19.738 C179.909996,20.6566713 179.108338,21.3153313 178.233,21.714 C177.357662,22.1126687 176.417338,22.312 175.412,22.312 C174.510662,22.312 173.674337,22.1516683 172.903,21.831 C172.131663,21.5103317 171.468669,21.0640029 170.914,20.492 C170.359331,19.9199971 169.921668,19.2440039 169.601,18.464 C169.280332,17.6839961 169.12,16.8346713 169.12,15.916 C169.12,14.9973287 169.275998,14.1480039 169.588,13.368 C169.900002,12.5879961 170.333331,11.9120029 170.888,11.34 C171.442669,10.7679971 172.092663,10.3216683 172.838,10.001 C173.583337,9.68033173 174.389329,9.52 175.256,9.52 C176.209338,9.52 177.049996,9.68033173 177.778,10.001 C178.506004,10.3216683 179.112664,10.7549973 179.598,11.301 C180.083336,11.8470027 180.451665,12.4839964 180.703,13.212 C180.954335,13.9400036 181.08,14.7199958 181.08,15.552 Z M192.39,14.148 C192.39,13.0906614 192.112669,12.3020026 191.558,11.782 C191.003331,11.2619974 190.197339,11.002 189.14,11.002 C188.411996,11.002 187.736003,11.1319987 187.112,11.392 C186.487997,11.6520013 185.959336,11.9986645 185.526,12.432 L184.538,11.262 C185.040669,10.7593308 185.703663,10.343335 186.527,10.014 C187.350337,9.68466502 188.281995,9.52 189.322,9.52 C189.98067,9.52 190.595997,9.61099909 191.168,9.793 C191.740003,9.97500091 192.242664,10.2479982 192.676,10.612 C193.109336,10.9760018 193.447332,11.4353306 193.69,11.99 C193.932668,12.5446694 194.054,13.1946629 194.054,13.94 L194.054,19.27 C194.054,19.7380023 194.071333,20.2233308 194.106,20.726 C194.140667,21.2286692 194.192666,21.6533316 194.262,22 L192.676,22 C192.624,21.7053319 192.580667,21.3846684 192.546,21.038 C192.511333,20.6913316 192.494,20.353335 192.494,20.024 L192.442,20.024 C191.887331,20.8386707 191.259004,21.4236649 190.557,21.779 C189.854996,22.1343351 189.010005,22.312 188.022,22.312 C187.553998,22.312 187.073002,22.2470007 186.579,22.117 C186.084998,21.9869994 185.634335,21.7746681 185.227,21.48 C184.819665,21.1853319 184.481668,20.8040023 184.213,20.336 C183.944332,19.8679977 183.81,19.2960034 183.81,18.62 C183.81,17.6839953 184.048331,16.9430027 184.525,16.397 C185.001669,15.8509973 185.638663,15.443668 186.436,15.175 C187.233337,14.906332 188.147662,14.7330004 189.179,14.655 C190.210338,14.5769996 191.280661,14.538 192.39,14.538 L192.39,14.148 Z M191.87,15.916 C191.141996,15.916 190.40967,15.946333 189.673,16.007 C188.93633,16.067667 188.269003,16.1889991 187.671,16.371 C187.072997,16.5530009 186.583335,16.8173316 186.202,17.164 C185.820665,17.5106684 185.63,17.9699971 185.63,18.542 C185.63,18.9753355 185.712333,19.3393319 185.877,19.634 C186.041667,19.9286681 186.262665,20.1669991 186.54,20.349 C186.817335,20.5310009 187.124998,20.6609996 187.463,20.739 C187.801002,20.8170004 188.143332,20.856 188.49,20.856 C189.114003,20.856 189.668664,20.7476677 190.154,20.531 C190.639336,20.3143322 191.046665,20.0196685 191.376,19.647 C191.705335,19.2743315 191.956666,18.8453358 192.13,18.36 C192.303334,17.8746642 192.39,17.363336 192.39,16.826 L192.39,15.916 L191.87,15.916 Z M198.604,12.51 C198.604,12.180665 198.595333,11.7560026 198.578,11.236 C198.560667,10.7159974 198.534667,10.2480021 198.5,9.832 L200.19,9.832 C200.224667,10.161335 200.250667,10.5253313 200.268,10.924 C200.285333,11.3226687 200.294,11.6519987 200.294,11.912 L200.346,11.912 C200.692668,11.2013298 201.212663,10.6250022 201.906,10.183 C202.599337,9.74099779 203.379329,9.52 204.246,9.52 C204.471334,9.52 204.674999,9.52866658 204.857,9.546 C205.039001,9.56333342 205.225332,9.59799974 205.416,9.65 L205.182,11.314 C205.077999,11.2793332 204.904668,11.2446668 204.662,11.21 C204.419332,11.1753332 204.176668,11.158 203.934,11.158 C203.465998,11.158 203.015335,11.2446658 202.582,11.418 C202.148664,11.5913342 201.771668,11.8643315 201.451,12.237 C201.130332,12.6096685 200.870334,13.0863304 200.671,13.667 C200.471666,14.2476696 200.372,14.9453293 200.372,15.76 L200.372,22 L198.604,22 L198.604,12.51 Z M216.258,12.614 C215.963332,12.1459977 215.534336,11.7603349 214.971,11.457 C214.407664,11.1536652 213.79667,11.002 213.138,11.002 C212.42733,11.002 211.786003,11.1276654 211.214,11.379 C210.641997,11.6303346 210.152335,11.9769978 209.745,12.419 C209.337665,12.8610022 209.025668,13.380997 208.809,13.979 C208.592332,14.577003 208.484,15.2226632 208.484,15.916 C208.484,16.6093368 208.592332,17.2506637 208.809,17.84 C209.025668,18.4293363 209.333331,18.9449978 209.732,19.387 C210.130669,19.8290022 210.615997,20.1756654 211.188,20.427 C211.760003,20.6783346 212.40133,20.804 213.112,20.804 C213.892004,20.804 214.550664,20.6566681 215.088,20.362 C215.625336,20.0673319 216.067332,19.6860023 216.414,19.218 L217.74,20.206 C217.219997,20.8473365 216.583004,21.3586648 215.829,21.74 C215.074996,22.1213352 214.169339,22.312 213.112,22.312 C212.123995,22.312 211.231337,22.1516683 210.434,21.831 C209.636663,21.5103317 208.956336,21.0640029 208.393,20.492 C207.829664,19.9199971 207.392002,19.2440039 207.08,18.464 C206.767998,17.6839961 206.612,16.8346713 206.612,15.916 C206.612,14.9973287 206.767998,14.1480039 207.08,13.368 C207.392002,12.5879961 207.829664,11.9120029 208.393,11.34 C208.956336,10.7679971 209.636663,10.3216683 210.434,10.001 C211.231337,9.68033173 212.123995,9.52 213.112,9.52 C213.926671,9.52 214.754329,9.69766489 215.595,10.053 C216.435671,10.4083351 217.115997,10.9326632 217.636,11.626 L216.258,12.614 Z M222.368,11.834 C222.697335,11.1233298 223.24333,10.5600021 224.006,10.144 C224.76867,9.72799792 225.583329,9.52 226.45,9.52 C227.992674,9.52 229.149663,9.97932874 229.921,10.898 C230.692337,11.8166713 231.078,13.0299925 231.078,14.538 L231.078,22 L229.31,22 L229.31,15.266 C229.31,14.6246635 229.258001,14.0440026 229.154,13.524 C229.049999,13.0039974 228.872335,12.5576685 228.621,12.185 C228.369665,11.8123315 228.031669,11.522001 227.607,11.314 C227.182331,11.105999 226.649337,11.002 226.008,11.002 C225.539998,11.002 225.085002,11.0973324 224.643,11.288 C224.200998,11.4786676 223.806668,11.768998 223.46,12.159 C223.113332,12.549002 222.836001,13.042997 222.628,13.641 C222.419999,14.239003 222.316,14.9453293 222.316,15.76 L222.316,22 L220.548,22 L220.548,2.344 L222.316,2.344 L222.316,11.834 L222.368,11.834 Z" id="Search" fill="#781743"></path>
                </g>
            </g>
        </g>
    </g>
</svg>